<svg version="1.1" id="Layer_1" xmlns="http://www.w3.org/2000/svg" xmlns:xlink="http://www.w3.org/1999/xlink" x="0px" y="0px"
	 width="100%" viewBox="0 0 1024 1024" enable-background="new 0 0 1024 1024" xml:space="preserve">
<path fill="#000000" opacity="1.000000" stroke="none" 
	d="
M163.855377,529.058716 
	C165.197144,526.340332 163.510742,524.571228 162.603226,522.703064 
	C153.973633,504.939056 150.514954,486.161041 151.760620,466.525787 
	C152.021530,462.413208 152.894180,458.276001 154.024765,454.303802 
	C154.802368,451.571777 153.971466,449.997894 152.144440,448.193085 
	C142.778793,438.941162 133.579727,429.520172 124.187149,420.296051 
	C120.367867,416.545227 118.634026,412.152557 118.654076,406.896423 
	C118.737358,385.064240 118.752518,363.231750 118.889168,341.399963 
	C118.916222,337.078491 119.370316,332.759796 119.624527,328.439636 
	C119.750290,326.302216 119.388702,324.254242 117.095619,323.529144 
	C103.047859,319.087006 98.202881,308.163300 95.913078,294.842529 
	C92.785767,276.649628 99.959328,261.607819 116.728470,255.875626 
	C141.640381,247.359955 165.946960,260.651642 166.442642,289.472626 
	C166.638092,300.836945 163.592148,310.407776 155.024841,318.075073 
	C152.992905,319.893555 150.816223,321.525909 148.258224,322.180786 
	C143.788681,323.325073 142.828186,326.197388 142.871506,330.352936 
	C143.121613,354.350067 143.247681,378.348846 143.306107,402.347321 
	C143.313721,405.474274 144.357193,407.915741 146.740891,409.718048 
	C152.081177,413.755829 157.131683,418.040741 160.713058,423.822479 
	C161.097198,424.442596 161.964828,424.763245 162.921631,425.446686 
	C165.228424,420.526245 167.687149,416.047546 170.511078,411.772949 
	C175.590866,404.083588 181.116394,396.794281 188.766098,391.444336 
	C191.313446,389.662750 191.564026,387.697144 191.186890,384.631195 
	C187.602036,355.487579 189.841965,327.470032 208.370071,302.959045 
	C212.608917,297.351440 217.787766,292.627228 223.094711,288.048248 
	C224.584244,286.763062 226.404526,285.795013 227.612747,283.274902 
	C222.820160,278.985535 218.079803,274.388611 212.958435,270.264862 
	C208.374115,266.573578 206.674026,261.957855 206.689133,256.306396 
	C206.731033,240.640457 206.592880,224.973694 206.705261,209.308533 
	C206.732788,205.469421 205.626617,203.380829 201.687012,201.990036 
	C188.820587,197.447830 182.784653,187.236313 182.392258,173.573792 
	C182.024612,160.771820 186.033813,150.410736 195.730545,142.223480 
	C206.525665,133.108810 218.704544,131.399719 231.700897,136.378113 
	C244.071289,141.116714 251.520157,150.300934 253.267990,163.451401 
	C255.097549,177.216461 252.411087,189.644791 240.494705,198.549683 
	C239.564560,199.244766 238.645172,200.178268 237.583420,200.436829 
	C230.645630,202.126389 229.474792,206.214722 229.966751,213.141953 
	C230.778091,224.566406 230.756058,236.088058 231.331009,247.561676 
	C231.423523,249.408035 231.385818,251.142197 233.045883,252.519562 
	C239.572205,257.934509 246.023239,263.440216 253.192200,269.494965 
	C253.829208,263.205383 254.176132,257.535400 255.447266,251.993118 
	C263.620789,216.355713 285.330750,193.405197 320.141266,182.675018 
	C327.620392,180.369629 335.168884,178.318329 343.116913,178.715179 
	C345.774323,178.847855 347.402924,177.447433 348.894226,175.462234 
	C356.354584,165.531067 365.137482,156.896790 375.222595,149.673569 
	C398.723389,132.841736 424.607056,126.424767 452.635803,134.882248 
	C480.758240,143.368011 498.076019,163.377808 507.364899,190.782288 
	C508.325500,193.616287 509.296692,196.447159 510.213928,199.295288 
	C511.115234,202.093918 511.954071,204.912674 513.265076,209.165268 
	C514.656494,203.980713 515.588196,200.173782 516.700134,196.420242 
	C524.129150,171.341156 538.112793,151.215515 562.108643,139.666855 
	C592.084229,125.240250 620.634521,129.818924 647.463928,148.259323 
	C658.629456,155.933624 668.890442,164.684082 676.566223,176.061508 
	C679.305603,180.122055 683.772949,179.115616 687.476929,179.503006 
	C719.068481,182.807037 743.336609,197.989212 760.462158,224.473694 
	C768.183289,236.414276 772.078979,249.787094 772.358459,264.107056 
	C772.393494,265.900635 772.074341,267.831482 774.512817,269.515961 
	C781.754333,265.292175 788.235596,259.630066 794.101685,253.397705 
	C795.993164,251.388123 795.522888,247.688873 795.614990,244.684845 
	C795.997437,232.205978 794.890747,219.687546 796.607727,207.244186 
	C797.046021,204.067169 795.027344,202.912720 792.505859,201.901169 
	C782.799255,198.007111 775.528564,191.334839 773.467407,180.972641 
	C769.916077,163.118896 773.066223,148.281113 789.784973,138.768402 
	C806.160034,129.451202 824.343628,132.680817 836.153442,147.030930 
	C848.947998,162.577606 847.454468,190.601044 824.781982,201.438080 
	C820.419678,203.523193 819.165466,206.016251 819.237793,210.574127 
	C819.489014,226.389709 819.335571,242.211594 819.355347,258.031067 
	C819.361328,262.839020 817.553528,266.591461 813.705505,269.653625 
	C809.413879,273.068848 805.482056,276.935699 801.386169,280.597656 
	C799.250000,282.507538 798.884155,284.127075 801.453491,286.224640 
	C822.378967,303.307709 832.150391,326.118439 835.499390,352.338867 
	C836.927490,363.520172 836.494629,374.537262 834.541687,385.570648 
	C834.161621,387.718170 833.867981,390.002899 835.566162,391.744720 
	C845.222412,401.648956 853.810730,412.400360 861.031921,424.490387 
	C866.318665,421.311249 869.170044,416.353180 873.342041,412.956482 
	C881.750122,406.110840 883.630615,397.662964 883.293457,387.177216 
	C882.678284,368.047485 883.418457,348.869324 883.817749,329.716034 
	C883.895203,325.999664 882.723267,324.044708 879.309448,322.491425 
	C864.857117,315.915497 857.371155,300.942657 859.755127,284.049286 
	C861.886414,268.946777 873.609070,255.929001 888.465576,254.009796 
	C906.108765,251.730621 923.709900,260.352264 929.701416,279.646301 
	C934.964355,296.593872 926.683228,315.622711 910.666870,322.743774 
	C907.347839,324.219452 906.243958,326.110962 906.284668,329.555115 
	C906.422729,341.219696 906.456177,352.888672 906.299194,364.552856 
	C906.095215,379.706268 905.650574,394.856354 905.363647,410.008850 
	C905.323975,412.103851 904.831604,413.861359 903.381592,415.462067 
	C893.546265,426.319855 883.854614,437.309631 873.899780,448.055969 
	C871.702209,450.428223 870.997009,452.717255 871.583008,455.699280 
	C876.143311,478.904144 872.345154,501.015228 862.449707,522.190613 
	C860.758850,525.808960 860.916260,528.506287 862.755432,531.889282 
	C873.053955,550.832764 877.356262,571.215332 875.038025,592.574707 
	C872.477295,616.167969 863.549194,637.207825 847.046997,654.711182 
	C842.286499,659.760498 842.420044,659.886658 848.367371,663.641663 
	C848.789612,663.908203 849.228699,664.150330 849.637268,664.436157 
	C857.996399,670.283508 858.668579,672.491760 868.265320,662.362671 
	C882.229553,647.623657 896.930969,633.600708 910.512207,618.478394 
	C913.682556,614.948242 915.349548,611.340576 915.409546,606.947144 
	C915.602600,592.793579 915.527283,578.636475 915.682495,564.482117 
	C915.714783,561.543701 914.594360,559.572632 911.904541,558.748169 
	C892.651672,552.846802 886.185425,526.270935 896.447205,508.787048 
	C905.294312,493.713318 920.860352,487.131226 937.335571,492.007233 
	C953.178284,496.696045 964.592957,512.384216 963.215515,528.774902 
	C962.116394,541.854980 955.881531,552.266907 943.806580,558.196777 
	C939.947876,560.091797 938.933533,562.432190 938.994934,566.343567 
	C939.230042,581.340149 938.758728,596.364502 939.516541,611.329651 
	C939.937927,619.650940 936.934875,625.935242 931.492371,631.361511 
	C911.205872,651.587769 891.728455,672.656738 869.633911,691.013062 
	C861.717285,697.590149 855.802673,698.295532 846.893921,693.147278 
	C837.108276,687.492310 827.223328,681.984314 818.084167,674.958801 
	C816.456238,679.272461 818.105408,683.274170 818.275513,687.290894 
	C819.073730,706.136230 814.585510,723.617615 804.390747,739.482483 
	C801.939758,743.296692 801.689392,746.005859 805.623657,748.671631 
	C807.546143,749.974182 809.190063,751.684326 811.096008,753.015259 
	C818.516113,758.196899 821.972107,765.417847 822.039185,774.308716 
	C822.120911,785.139526 822.134033,795.973145 821.958557,806.802002 
	C821.920349,809.162598 822.455139,810.470215 824.695801,811.352722 
	C839.772400,817.290894 847.450195,836.149597 844.981262,849.595459 
	C841.861328,866.586121 828.510559,878.333862 812.049988,880.497681 
	C791.842651,883.154053 778.328247,868.882141 774.906067,856.908264 
	C769.683289,838.634155 776.975098,819.560486 792.605469,812.004333 
	C796.576538,810.084534 797.974304,807.727600 797.702820,803.532776 
	C797.134155,794.747864 798.423584,785.910950 796.721497,777.129456 
	C795.524170,770.952209 790.674011,768.246338 786.221558,765.117798 
	C784.442566,763.867798 782.991882,765.506042 781.806702,766.482544 
	C764.218079,780.973877 743.500244,786.901367 721.268860,787.914551 
	C711.343689,788.366821 701.322998,787.281006 691.650085,784.538452 
	C688.225891,783.567627 686.095764,784.075073 683.803772,787.265625 
	C665.717651,812.442688 640.489319,824.774048 610.025269,823.884644 
	C575.192200,822.867554 548.326782,806.137207 529.273376,776.952148 
	C528.010132,775.017273 526.694641,773.116577 524.459839,771.324097 
	C524.459839,776.852112 524.250916,782.389404 524.494385,787.906677 
	C525.883484,819.388062 525.147644,850.885925 525.270569,882.375793 
	C525.300781,890.115540 520.183350,894.506531 512.351685,894.358521 
	C504.666595,894.213257 499.929352,889.228088 499.911011,881.204041 
	C499.835236,848.038879 499.773102,814.873657 499.707184,781.708496 
	C499.701935,779.062866 499.706482,776.417236 499.706482,772.137146 
	C497.301331,775.330750 495.836700,777.409607 494.236938,779.378784 
	C478.741577,798.453003 461.089508,814.506165 436.390900,820.727356 
	C403.917084,828.906921 375.512054,821.629028 351.377106,798.317078 
	C347.535461,794.606506 344.495636,790.159973 341.702972,785.622620 
	C340.336853,783.402954 338.942474,782.672241 336.436523,783.454041 
	C308.463470,792.180725 281.924774,788.273987 256.646332,774.108948 
	C253.993973,772.622681 252.189331,772.984863 249.956543,774.801453 
	C244.507477,779.234863 239.731567,784.355347 234.732803,789.246277 
	C232.607666,791.325439 230.374023,806.979675 231.706635,809.395813 
	C232.489136,810.814575 234.003876,811.225891 235.369232,811.837402 
	C250.373032,818.557129 256.213226,835.421631 255.052536,846.114380 
	C253.109467,864.014709 240.954117,878.476807 225.602295,881.007568 
	C207.634491,883.969543 184.686249,872.174683 182.532837,849.751892 
	C180.815628,831.871033 188.810577,817.521729 205.506851,810.399353 
	C207.826523,809.409912 208.729004,808.062134 208.870010,805.555908 
	C209.243027,798.925659 210.017975,792.318604 210.432465,785.689880 
	C210.779037,780.147278 213.539124,775.915771 217.354004,772.276917 
	C221.327728,768.486511 225.342300,764.705627 229.637741,761.297058 
	C232.636490,758.917419 233.128876,757.315186 230.339493,754.184265 
	C219.215897,741.698486 211.110306,727.514343 207.334808,711.049866 
	C204.636520,699.282898 205.457993,687.589355 208.098633,675.976379 
	C208.685593,673.395142 208.361450,671.929321 205.921204,670.778137 
	C189.424622,662.995239 176.219131,651.305115 165.582718,636.590820 
	C165.409576,636.351257 165.019257,636.268616 164.477859,635.976624 
	C161.249985,637.907532 159.129105,641.123901 156.526184,643.843811 
	C150.654007,649.979919 144.892929,656.238953 138.746048,662.090149 
	C133.907806,666.695679 127.488991,666.713074 122.506577,662.253479 
	C112.823540,653.586548 103.340866,644.694824 93.821556,635.846313 
	C88.843262,631.218750 88.328476,625.022339 88.278534,618.797424 
	C88.130264,600.316345 87.078636,581.828552 88.533272,563.356873 
	C88.690308,561.362671 87.815247,560.315491 86.127022,559.492126 
	C66.765114,550.048828 60.505760,537.139404 65.167229,516.371033 
	C68.997391,499.306427 84.951141,488.806458 104.186119,490.690735 
	C121.512245,492.388000 134.980103,507.143250 135.430191,524.102295 
	C135.870560,540.695496 129.298920,552.684265 114.060875,559.636414 
	C111.909012,560.618225 111.329109,562.249023 111.335907,564.458130 
	C111.388695,581.615662 112.840141,598.747620 112.271217,615.916260 
	C112.232368,617.088623 112.309753,618.333069 113.222305,619.190063 
	C119.379478,624.972229 124.932823,631.422180 132.335556,636.922485 
	C138.230164,629.341553 145.498734,623.511902 151.831680,616.730713 
	C153.874939,614.542847 153.812134,612.059937 153.123917,609.271545 
	C148.416504,590.198975 148.307037,571.165771 153.646912,552.149353 
	C155.920013,544.054321 159.753342,536.707581 163.855377,529.058716 
M537.240112,704.499939 
	C537.407166,714.797791 536.696228,725.138611 538.864197,735.334900 
	C543.733398,758.235535 556.422546,775.672424 576.017334,788.166016 
	C604.281128,806.186951 639.125732,801.112732 660.891846,775.765442 
	C670.860168,764.156982 674.958069,747.168152 665.966797,734.282593 
	C663.973999,731.426636 664.188904,728.295959 665.728455,725.273743 
	C667.985474,720.843323 671.266541,717.774109 676.555054,717.671570 
	C682.286499,717.560486 687.102356,719.455261 689.903870,724.723877 
	C694.820923,733.970886 696.010681,743.992188 695.294983,754.268494 
	C695.036377,757.982971 696.491516,759.826965 700.001038,760.571167 
	C709.116394,762.503967 718.142334,763.739075 727.629211,762.935120 
	C757.648621,760.391418 784.082642,739.859985 791.747131,707.374512 
	C793.238342,701.053772 794.105957,694.727539 793.209106,688.128601 
	C790.774170,670.212097 780.353149,656.674744 769.279907,643.465820 
	C764.067505,637.248108 756.715515,633.638428 750.574219,628.554565 
	C744.995667,623.936462 743.638794,615.556396 747.184692,610.081421 
	C750.273254,605.312744 758.489136,603.931519 764.896545,607.202454 
	C766.517334,608.029968 768.030090,609.104797 769.494873,610.196777 
	C782.317810,619.756348 793.480774,630.838379 801.005615,645.156799 
	C802.463806,647.931519 803.972229,648.858093 807.317932,647.950623 
	C818.286865,644.975220 827.596619,639.582275 834.588501,630.549988 
	C845.269592,616.751770 849.746033,600.715332 850.565186,583.615967 
	C851.114563,572.147949 847.595947,561.433472 843.249451,551.026062 
	C840.432983,551.294800 838.898132,552.951355 837.175110,554.167664 
	C821.474243,565.250549 804.151001,570.578552 784.937317,568.243103 
	C775.146973,567.053101 767.386658,562.420410 763.364075,552.729858 
	C760.797668,546.547363 759.429199,540.039673 757.698608,533.635925 
	C755.778870,526.532288 759.406128,520.715210 766.747070,518.452087 
	C773.066895,516.503784 779.482666,519.856873 781.764526,526.512878 
	C782.674500,529.167236 783.066406,531.995300 783.778015,534.722412 
	C785.395996,540.923157 789.455261,544.336487 795.767151,543.446167 
	C807.096375,541.848267 817.964233,538.599854 826.422302,530.265503 
	C841.066345,515.835754 848.048950,497.614563 848.352844,477.678314 
	C848.704407,454.620361 840.726318,433.931396 824.165955,417.206573 
	C819.718689,412.715088 814.797607,408.696198 810.267578,404.282257 
	C806.395569,400.509399 805.195435,395.862305 806.677551,390.584351 
	C810.215881,377.983704 811.727173,365.252930 809.735413,352.174652 
	C806.397278,330.255402 795.624207,312.982574 777.580627,300.265167 
	C771.208313,295.773834 771.002075,295.990967 766.269775,302.403259 
	C765.280579,303.743683 764.344971,305.129852 763.277588,306.405365 
	C756.762512,314.190796 749.537476,321.195740 739.138855,323.122955 
	C732.304565,324.389587 725.294128,324.935699 718.338318,325.228912 
	C714.316345,325.398499 713.048828,326.904785 713.318115,330.673004 
	C714.017883,340.466156 714.385132,350.223663 713.596069,360.087982 
	C713.124146,365.988342 710.598877,369.006165 705.731445,371.529053 
	C698.647766,375.200653 691.848694,379.425323 684.962646,383.472687 
	C682.081116,385.166351 680.662415,387.744476 681.516479,391.068970 
	C684.002686,400.747101 684.571350,410.718353 686.141846,420.534821 
	C687.612976,429.730255 685.511597,438.056885 678.996582,445.011017 
	C674.075256,450.263977 668.107788,453.795776 661.101746,455.324432 
	C646.954956,458.411011 633.534180,455.619385 621.097168,448.860443 
	C616.356873,446.284332 613.695862,447.204376 610.329163,450.563721 
	C599.670288,461.199188 595.593323,473.890625 597.211243,488.763092 
	C597.558167,491.952301 598.156616,494.412689 600.688049,496.546692 
	C606.939209,501.816284 609.658142,508.611603 609.407593,516.857178 
	C609.079834,527.642578 602.124817,537.099915 591.663391,540.262451 
	C581.583557,543.309631 570.177368,539.403992 564.229492,530.868774 
	C555.554810,518.420532 558.191711,502.972809 570.947693,493.318420 
	C573.426575,491.442291 574.055786,489.773468 573.822876,486.781342 
	C573.463135,482.160004 573.405334,477.402557 574.087952,472.832581 
	C576.709778,455.282562 582.599915,439.363525 598.181274,428.776031 
	C597.053711,427.154022 596.106689,425.789246 595.157043,424.426300 
	C594.204895,423.059662 593.186523,421.734589 592.306030,420.323334 
	C579.546753,399.871979 579.147339,378.959442 590.435364,357.864838 
	C593.924133,351.345032 601.437561,349.581421 607.668396,353.036469 
	C613.066406,356.029785 614.807739,362.784363 612.118408,369.194855 
	C605.163574,385.772858 607.010925,401.218689 619.307495,414.577606 
	C628.582153,424.653534 639.999573,430.662140 654.281860,429.662567 
	C660.757080,429.209412 663.416687,426.381409 663.693054,419.979797 
	C664.085510,410.889557 662.111511,402.136383 660.257935,393.372284 
	C659.066772,387.740112 659.677124,382.631042 662.484497,377.515411 
	C667.613770,368.168671 676.024719,363.223877 685.321533,359.061005 
	C693.221863,355.523407 693.586487,354.944763 692.529297,346.504822 
	C690.925171,333.698639 692.090942,320.870819 691.621887,308.064697 
	C691.510742,305.031769 692.760681,303.076721 695.238037,301.493713 
	C699.107788,299.021027 703.047485,297.158875 707.845703,297.624054 
	C712.799561,298.104279 717.841492,298.963409 722.737793,298.507324 
	C736.897583,297.188232 742.796875,294.087738 745.348572,282.945618 
	C748.976990,267.102081 746.538757,251.764984 738.121521,237.748749 
	C727.503662,220.067856 711.441223,210.415222 691.337952,206.895447 
	C684.432556,205.686401 683.845459,206.323380 684.800232,213.210388 
	C687.582581,233.279861 680.741882,250.253586 667.075867,264.624817 
	C662.663086,269.265320 653.758423,268.700226 649.269531,264.306366 
	C644.512146,259.649567 644.174377,252.432556 648.826599,247.223953 
	C659.407776,235.377121 662.705811,222.035873 658.577759,206.552292 
	C651.655090,180.587189 632.132812,161.930099 602.915894,158.533585 
	C579.976379,155.866806 555.463196,172.322250 545.545654,195.722244 
	C539.308289,210.438980 537.754272,226.010422 537.502136,241.613007 
	C537.039001,270.265625 536.653320,298.927734 536.490723,327.580566 
	C536.070923,401.561340 536.679504,475.547699 536.325684,549.529175 
	C536.080200,600.860474 537.388367,652.174316 537.240112,704.499939 
M488.655029,394.500061 
	C489.308594,343.337646 487.729431,292.190582 487.494354,241.033279 
	C487.421936,225.280472 486.036194,209.586319 479.858643,194.585663 
	C469.450623,169.312408 441.496307,154.336624 414.767517,160.104370 
	C397.858246,163.753174 385.171295,173.419113 375.363068,187.127350 
	C367.533630,198.069992 364.457825,210.487747 365.310150,223.949875 
	C365.888092,233.078110 370.838623,239.615082 376.846405,245.930450 
	C381.378540,250.694626 380.434998,259.680756 375.693451,264.132690 
	C370.400299,269.102539 361.665222,269.333557 356.772980,263.789856 
	C344.746948,250.162476 337.708435,234.639740 340.481476,215.870911 
	C340.861481,213.299057 341.007812,210.692673 341.257294,208.153351 
	C336.146179,206.992371 334.634247,207.035660 327.278809,208.930374 
	C299.794556,216.010208 280.771881,237.100189 278.661926,268.208771 
	C278.181427,275.292511 278.875854,282.865784 286.486786,287.420135 
	C290.153687,289.614349 293.082092,293.012146 296.476685,295.698395 
	C303.182678,301.005157 306.746216,307.631653 306.401184,316.404633 
	C306.087036,324.392822 306.584900,332.416473 306.172089,340.395905 
	C305.916443,345.337830 307.927155,348.342957 312.066589,350.318085 
	C316.569214,352.466522 321.235748,354.299561 325.613403,356.671387 
	C328.251221,358.100586 330.561920,358.466980 333.605042,358.028290 
	C352.818146,355.258789 364.888855,367.922516 365.127258,384.713959 
	C365.327881,398.841766 350.758942,411.568451 337.249603,410.207092 
	C321.944183,408.664734 311.535492,395.264191 314.074768,379.930115 
	C314.556915,377.018341 313.650391,376.072418 311.304291,375.177734 
	C306.335205,373.282776 301.295319,371.487030 296.541504,369.131866 
	C286.468353,364.141357 281.715210,355.687744 281.663635,344.546539 
	C281.630463,337.380524 281.601990,330.210236 281.816803,323.049194 
	C281.917694,319.686737 280.786255,317.395752 277.957855,315.564240 
	C271.362335,311.293396 265.246521,306.392731 260.148956,300.369629 
	C258.083496,297.929169 255.841431,297.627563 253.050018,298.740692 
	C246.771301,301.244415 241.107147,304.758331 236.468933,309.639893 
	C219.855591,327.124786 212.823578,347.770630 216.381378,371.815491 
	C216.852234,374.997803 218.315720,375.828308 221.563843,375.188751 
	C235.097885,372.523926 248.673325,371.998199 261.858093,376.826691 
	C269.649689,379.680054 277.585022,382.589020 283.647369,388.642548 
	C288.868896,393.856445 289.364014,402.528687 285.006073,407.243835 
	C280.219360,412.422882 272.707550,412.801727 266.555939,408.018372 
	C263.256348,405.452637 260.020996,402.767548 256.039154,401.382416 
	C237.022522,394.767090 219.674606,398.698212 204.704834,411.343994 
	C180.578323,431.725037 171.151016,471.179077 182.271973,501.892212 
	C188.538254,519.198059 198.134583,533.866333 215.452682,541.948242 
	C224.999741,546.403687 234.871643,550.105408 245.745361,548.267822 
	C254.009933,546.871155 260.264984,549.967468 262.030609,556.688782 
	C264.170654,564.835510 259.945801,571.952881 251.751068,574.497742 
	C247.052826,575.956848 242.488419,574.935852 237.912216,574.314209 
	C222.093155,572.165527 206.990479,568.006531 193.842133,558.369629 
	C190.016953,555.565979 186.814102,551.879456 182.469467,549.736084 
	C180.412018,551.871338 179.652802,554.262146 178.948547,556.627930 
	C172.371185,578.723511 173.883041,600.098022 185.501663,620.226440 
	C198.835068,643.325500 219.476685,654.215027 245.786667,654.529480 
	C252.506790,654.609741 258.839722,653.738281 263.052521,646.353699 
	C267.129578,639.207092 274.502777,635.299438 283.022064,634.727478 
	C285.841034,634.538147 287.086334,633.171509 288.099121,630.806030 
	C290.722504,624.678833 293.570099,618.627502 297.221313,613.046265 
	C308.542023,595.741516 324.309723,584.315247 344.167633,578.790527 
	C348.525299,577.578125 349.899994,575.812134 349.782928,571.348328 
	C349.600616,564.394958 349.495758,557.445374 350.485291,550.437073 
	C356.902222,504.989075 399.210999,478.851318 446.563568,486.518646 
	C453.079590,487.573730 455.865723,492.260651 455.318542,499.436157 
	C454.853394,505.536194 450.383026,510.101807 444.374207,510.313782 
	C440.047546,510.466400 435.698669,510.481720 431.378632,510.231476 
	C420.369537,509.593781 410.349396,512.594849 400.838196,517.902222 
	C380.445618,529.281494 372.760803,552.530090 376.082306,571.496155 
	C376.561615,574.232910 377.556091,575.372559 380.419861,575.813416 
	C391.705872,577.550598 402.449158,581.024475 412.044220,587.388672 
	C429.576904,599.017639 442.027191,614.155090 444.704926,635.812622 
	C445.633942,643.326538 441.021332,650.152710 434.438812,651.298828 
	C426.377899,652.702454 420.824188,648.769287 418.983948,640.264771 
	C418.529236,638.163452 418.497620,635.963196 417.963806,633.887573 
	C412.284210,611.803589 383.491211,595.657349 359.319916,600.742126 
	C336.244720,605.596497 320.709167,619.073853 312.017639,640.878540 
	C310.565704,644.521057 310.754913,647.183533 312.965546,650.490601 
	C322.688110,665.035400 319.208862,684.791138 305.393494,695.149231 
	C291.364166,705.667664 268.337372,704.554993 259.157654,690.402527 
	C253.198578,681.215454 246.934402,678.181458 237.239227,678.756104 
	C236.918823,678.775146 236.589752,678.621155 236.262650,678.558716 
	C233.899796,678.107483 232.557358,678.813416 232.093185,681.437195 
	C230.862305,688.394775 230.641235,695.432922 231.904266,702.287170 
	C234.950638,718.819336 243.641846,732.315857 256.286621,743.076843 
	C277.037537,760.736450 300.836548,766.702148 327.552185,760.484558 
	C332.117096,759.422058 333.119507,757.084961 332.341125,752.560303 
	C330.923798,744.321228 331.132843,736.028748 333.490204,727.863892 
	C340.913544,702.152893 367.049408,678.581482 401.107178,682.802246 
	C410.903381,684.016235 419.632019,688.275452 426.841217,695.078491 
	C434.007996,701.841492 432.816132,710.767395 424.505371,715.475098 
	C418.510712,718.870850 413.281708,716.841980 408.240295,713.361023 
	C398.382294,706.554260 388.247223,706.533691 377.534668,711.419373 
	C354.571045,721.892456 353.230621,750.426758 361.180969,767.101440 
	C373.632935,793.217529 402.644623,805.444336 431.237061,795.904785 
	C463.978638,784.981018 488.321747,758.276184 488.617096,715.776550 
	C488.802368,689.111816 488.640900,662.444763 488.683197,635.778809 
	C488.687256,633.207336 488.402313,630.755127 486.872162,628.655457 
	C481.480255,621.256775 476.450928,613.590576 470.020569,606.977783 
	C459.314606,595.968018 447.887878,585.791992 435.760162,576.375610 
	C431.947510,573.415344 429.123688,569.733276 430.069580,564.434204 
	C431.052734,558.926636 434.587097,555.626221 439.739777,554.064392 
	C444.462799,552.632812 448.647400,554.495422 452.428680,557.059998 
	C462.507080,563.895630 471.611328,571.981689 481.014130,579.683350 
	C483.239960,581.506470 485.554657,583.221191 488.654510,585.626892 
	C488.654510,521.456787 488.654510,458.478455 488.655029,394.500061 
M815.156433,164.366974 
	C814.100647,163.567444 813.142517,162.565674 811.973206,162.001373 
	C804.739502,158.510544 796.809082,162.201660 796.346436,169.198914 
	C795.961853,175.015854 798.853516,179.681595 804.163086,181.811447 
	C808.234070,183.444473 814.188232,181.744553 817.042908,177.765823 
	C820.324097,173.192657 818.468323,168.947830 815.156433,164.366974 
M937.615540,528.212830 
	C937.479126,526.907349 937.549316,525.538269 937.170776,524.307251 
	C935.446838,518.700012 930.840027,515.728821 925.036133,516.331848 
	C920.143372,516.840210 916.735657,520.220215 916.348694,524.948608 
	C915.761963,532.117676 918.293396,536.457825 924.067017,538.181213 
	C929.780273,539.886597 935.082397,536.276428 937.615540,528.212830 
M225.491714,852.986572 
	C226.913605,851.714966 227.647217,850.029358 228.186447,848.272217 
	C230.085205,842.085144 226.405411,834.897583 220.641769,833.448669 
	C214.100266,831.804199 208.611084,835.085449 207.499802,841.469910 
	C206.643799,846.387634 208.499161,850.341980 212.517853,853.167236 
	C216.520004,855.980835 220.704712,856.846436 225.491714,852.986572 
M800.713867,851.694031 
	C804.036621,855.504211 808.008606,856.778625 812.753662,854.632080 
	C817.210693,852.615906 819.821716,849.396301 819.776428,844.205811 
	C819.733704,839.313232 817.641846,835.886658 813.166565,834.085693 
	C808.664490,832.273987 804.639893,833.471252 801.337585,836.839172 
	C797.695129,840.553894 797.428528,845.232361 800.713867,851.694031 
M207.815811,175.343079 
	C208.625824,176.580032 209.256180,177.995651 210.277435,179.022507 
	C214.345840,183.113251 219.649124,183.712753 223.795074,180.714294 
	C227.846329,177.784317 229.554932,171.288193 227.560287,166.398834 
	C225.786163,162.049942 220.570053,159.533203 215.602997,160.629532 
	C208.673691,162.158951 206.754883,165.481506 207.815811,175.343079 
M887.907593,298.599457 
	C888.725220,299.166748 889.486206,299.849976 890.369995,300.282043 
	C895.042725,302.566223 901.151611,301.105774 904.230286,297.029633 
	C906.892883,293.504333 906.310120,286.866913 903.009583,283.124451 
	C899.437073,279.073730 894.312378,278.321472 889.464233,281.136261 
	C883.715820,284.473724 882.916992,290.993134 887.907593,298.599457 
M101.225929,516.176941 
	C100.396477,516.206970 99.562004,516.188965 98.738388,516.274902 
	C93.805779,516.789612 90.803429,519.807861 89.693359,524.318359 
	C88.620934,528.675964 89.041252,533.009644 93.287422,535.888367 
	C97.549942,538.778198 101.842903,538.166199 105.889221,535.526794 
	C109.731819,533.020325 111.323799,529.239075 110.525246,524.746277 
	C109.692017,520.058533 106.982193,516.962646 101.225929,516.176941 
M129.800156,301.446899 
	C131.893997,301.780090 133.750641,300.916351 135.498428,300.045105 
	C140.903534,297.350769 143.305405,289.599396 140.394806,284.654449 
	C137.197113,279.221710 130.097916,277.711029 124.835457,281.533966 
	C121.518768,283.943390 119.991287,287.423737 120.445793,291.513184 
	C121.023529,296.711548 124.111961,299.857147 129.800156,301.446899 
M293.536804,663.066589 
	C291.020691,660.408752 288.185181,658.557373 284.327576,659.833008 
	C280.791321,661.002380 279.105835,663.815186 278.518738,667.243591 
	C277.849213,671.153503 278.986237,674.551331 282.585999,676.587646 
	C286.672607,678.899475 290.427673,677.456055 293.447144,674.556152 
	C296.847198,671.290771 296.186493,667.420471 293.536804,663.066589 
z"/>
<path fill="#000000" opacity="1.000000" stroke="none" 
	d="
M694.849609,497.701965 
	C704.178711,503.890503 711.923279,501.936920 719.251404,494.702148 
	C721.823242,492.162964 725.170715,490.407623 728.171875,488.305511 
	C731.960754,485.651733 733.881470,481.868256 734.559875,477.428284 
	C735.103455,473.870544 734.326233,471.212250 730.548523,469.337250 
	C716.526367,462.377655 712.084045,450.185822 713.062439,438.833740 
	C714.526794,421.844666 723.748779,411.023132 738.374146,407.304871 
	C753.862061,403.367340 770.989014,411.534790 777.026794,425.737427 
	C783.994934,442.128662 778.801941,458.776398 763.874023,467.798218 
	C761.618652,469.161285 759.082703,470.023315 759.314758,473.550049 
	C760.098267,485.456268 754.466919,494.290192 745.456116,501.330811 
	C738.240845,506.968536 731.159546,512.828369 723.562378,517.906799 
	C719.357849,520.717407 718.172058,523.825378 718.241882,528.613770 
	C718.477966,544.789490 708.370605,557.634583 692.502869,560.731018 
	C679.691040,563.231140 668.149780,559.868347 659.757935,549.481995 
	C651.278931,538.987976 649.873840,527.131714 655.867737,514.883423 
	C661.755249,502.852631 671.633240,496.829163 685.056030,496.649933 
	C688.226135,496.607635 691.381226,496.595398 694.849609,497.701965 
M693.925842,525.747070 
	C692.235779,520.925049 688.555603,518.988647 683.787476,519.491760 
	C679.506592,519.943481 676.280701,522.225403 675.377625,526.790710 
	C674.448059,531.490051 676.534668,536.052063 680.642456,538.224976 
	C683.954712,539.977051 687.200500,540.105957 690.528442,537.890076 
	C694.879944,534.992676 695.259644,531.002258 693.925842,525.747070 
M737.206787,437.464478 
	C737.129883,438.607635 736.848450,439.780884 737.011658,440.888672 
	C737.702881,445.582001 742.117554,449.476288 746.622131,449.512573 
	C749.879272,449.538879 754.841980,445.320282 755.501953,441.711395 
	C756.384827,436.883759 753.932922,433.731110 749.871338,431.635315 
	C744.743530,428.989319 740.835022,430.636292 737.206787,437.464478 
z"/>
<path fill="#000000" opacity="1.000000" stroke="none" 
	d="
M665.115417,601.945312 
	C637.366089,594.951721 615.493713,612.239380 606.512817,634.703369 
	C605.767700,636.567139 605.487793,638.511292 605.265564,640.520630 
	C604.483826,647.587769 598.807861,651.836670 591.105103,651.345032 
	C584.728394,650.937927 580.565918,646.178345 580.567261,639.223694 
	C580.569824,626.071167 586.040649,614.810059 594.097290,605.100891 
	C606.860718,589.719543 622.851501,578.446472 642.908325,575.235107 
	C679.549011,569.368225 712.678040,591.934143 720.476318,618.571167 
	C726.117798,637.841003 723.440552,656.419983 713.110657,673.712219 
	C709.830139,679.203735 702.742615,681.082336 696.857849,678.480896 
	C691.490784,676.108215 689.390259,670.874329 691.325134,664.152344 
	C693.569702,656.354309 696.346069,648.803955 696.978760,640.495789 
	C698.230469,624.059692 690.020081,613.748901 676.670288,606.319824 
	C673.188354,604.382202 669.424927,602.966370 665.115417,601.945312 
z"/>
<path fill="#000000" opacity="1.000000" stroke="none" 
	d="
M587.310730,284.398682 
	C582.516052,269.575470 581.830444,255.014084 586.534851,240.468613 
	C588.691040,233.801865 594.913574,230.168839 601.245239,231.250961 
	C609.115051,232.595932 613.098877,238.612976 610.573181,246.234085 
	C603.490845,267.604706 615.343750,294.825592 634.585388,304.883759 
	C637.570435,306.444122 640.655457,307.619110 643.854492,308.485474 
	C653.936401,311.215973 657.222900,315.886017 655.155701,324.815247 
	C653.525757,331.855621 646.309875,335.174683 637.361328,332.901123 
	C625.379578,329.856842 615.674377,322.904480 606.928284,314.556610 
	C598.150208,306.178223 591.264282,296.451263 587.310730,284.398682 
z"/>
<path fill="#000000" opacity="1.000000" stroke="none" 
	d="
M612.493958,727.723389 
	C612.398926,732.147949 612.379028,736.138977 612.343262,740.129944 
	C612.283264,746.830078 608.515747,751.353088 602.255371,752.256653 
	C595.304260,753.259949 589.598511,750.034241 587.910156,743.584717 
	C584.933899,732.214905 586.307312,720.970703 591.285828,710.566162 
	C601.313599,689.609314 618.033325,676.676758 640.807495,671.871338 
	C647.789795,670.398010 654.819702,674.992249 656.201477,681.369751 
	C657.943604,689.410828 654.986145,694.578064 646.713440,696.663940 
	C640.376770,698.261719 634.291992,700.243713 628.718384,703.686218 
	C619.840820,709.169189 614.870178,717.315674 612.493958,727.723389 
z"/>
<path fill="#000000" opacity="1.000000" stroke="none" 
	d="
M347.624390,451.220398 
	C343.987762,446.008636 343.438660,438.792236 346.481567,434.553192 
	C349.962646,429.703705 354.881805,428.303253 360.589294,429.687469 
	C387.750061,436.274811 411.097900,417.852051 416.060181,393.228210 
	C417.507721,386.045105 417.741058,378.691315 415.137207,371.570251 
	C414.680420,370.321014 414.234253,369.066620 413.830780,367.799469 
	C411.662354,360.988770 413.194977,355.406647 417.912750,352.870605 
	C423.757996,349.728455 431.821381,351.582489 435.869263,356.986420 
	C439.795471,362.227875 441.505859,368.417145 442.080444,374.667419 
	C442.977325,384.424530 442.564606,394.146271 440.330444,403.876617 
	C434.854767,427.724670 403.841736,455.129272 378.347565,456.549652 
	C371.373505,456.938202 364.491119,458.008148 357.557922,456.387085 
	C353.922913,455.537170 350.627075,454.088226 347.624390,451.220398 
z"/>
<path fill="#000000" opacity="1.000000" stroke="none" 
	d="
M272.334625,493.698517 
	C278.608490,496.379181 283.863342,495.522461 289.791107,492.653473 
	C307.547028,484.059631 325.092163,492.437073 328.162262,513.167542 
	C329.710846,523.624146 321.205688,535.186279 310.308472,538.623230 
	C299.117096,542.152893 286.764893,537.601013 281.679993,527.469849 
	C279.680908,523.486938 277.190308,521.765076 272.901672,520.717957 
	C257.995361,517.078674 244.427597,511.107452 237.183105,496.167816 
	C232.267639,486.031097 229.584183,475.561096 233.079758,464.370056 
	C235.032883,458.117188 239.763519,455.679596 247.254166,456.717346 
	C252.191513,457.401337 256.059204,462.065460 256.343658,467.667725 
	C256.597778,472.672363 257.485443,477.545715 259.396118,482.202576 
	C261.773132,487.996246 266.265045,491.456635 272.334625,493.698517 
z"/>
<path fill="#000000" opacity="1.000000" stroke="none" 
	d="
M413.732147,319.783691 
	C407.251404,324.854218 400.454865,328.641541 393.172882,331.624298 
	C389.533875,333.114838 385.808716,333.579468 381.944489,333.332275 
	C375.523529,332.921570 370.812836,327.777557 370.657928,321.027069 
	C370.466705,312.691895 373.104034,309.871674 380.802277,308.560455 
	C391.515137,306.735840 399.663330,300.290222 406.197784,292.092682 
	C416.474701,279.200195 418.635406,264.201874 416.172211,248.255188 
	C415.794312,245.808380 415.659454,243.298355 415.683502,240.820190 
	C415.742218,234.771851 419.024200,231.318283 425.077667,230.702667 
	C432.358307,229.962265 438.635773,233.928177 441.108490,241.433975 
	C445.093994,253.531799 443.946716,265.734192 440.743561,277.762177 
	C436.289124,294.488770 427.122345,308.313080 413.732147,319.783691 
z"/>
</svg>